<?xml version="1.0" encoding="utf-8"?>
<!-- Generator: Adobe Illustrator 27.0.0, SVG Export Plug-In . SVG Version: 6.00 Build 0)  -->
<svg version="1.1" xmlns="http://www.w3.org/2000/svg" xmlns:xlink="http://www.w3.org/1999/xlink" x="0px" y="0px"
	 viewBox="0 0 155.2 33.3" style="enable-background:new 0 0 155.2 33.3;" xml:space="preserve">
<style type="text/css">
	.st0{display:none;}
	.st1{display:inline;}
	.st2{fill:#CCCCCC;}
	.st3{fill:#262261;}
	.st4{fill:#E6E6E6;}
	.st5{fill:#FFFFFF;}
	.st6{fill:#F05A28;}
	.st7{font-family:'Roboto-Bold';}
	.st8{font-size:22.1866px;}
</style>
<g id="wordmark">
</g>
<g id="logo">
	<g>
		<g>
			<g>
				<path class="st3" d="M32.1,22.8c0.5-1.5,0.8-3.2,0.8-4.9c0-8.1-6.5-14.6-14.6-14.6S3.7,9.8,3.7,17.9c0,8.1,6.5,14.6,14.6,14.6
					c3,0,5.8-0.9,8.2-2.5c-2.8,2-6.1,3.2-9.8,3.2C7.4,33.3,0,25.8,0,16.6C0,7.4,7.4,0,16.6,0c9.2,0,16.6,7.4,16.6,16.6
					C33.3,18.8,32.9,20.9,32.1,22.8z"/>
				<path class="st3" d="M33.3,16.6C33.3,7.4,25.8,0,16.6,0C7.4,0,0,7.4,0,16.6c0,9.2,7.4,16.6,16.6,16.6c3.7,0,7.1-1.2,9.8-3.2
					c-2.3,1.6-5.1,2.5-8.2,2.5c-8.1,0-14.6-6.5-14.6-14.6c0-8.1,6.5-14.6,14.6-14.6s14.6,6.5,14.6,14.6c0,1.7-0.3,3.3-0.8,4.9
					C32.9,20.9,33.3,18.8,33.3,16.6z"/>
			</g>
			<g>
				<path class="st6" d="M7.3,11.5c-0.6,1.1-1,2.3-1.1,3.6c-0.9,6.1,3.4,11.7,9.4,12.5c6.1,0.9,11.7-3.4,12.5-9.4
					c0.9-6.1-3.4-11.7-9.4-12.5c-2.3-0.3-4.5,0.1-6.4,1c2.3-1.2,5-1.8,7.7-1.4c6.9,1,11.7,7.4,10.7,14.2c-1,6.9-7.4,11.7-14.2,10.7
					C9.6,29.2,4.8,22.9,5.8,16C6,14.3,6.5,12.8,7.3,11.5z"/>
				<path class="st6" d="M5.8,16c-1,6.9,3.8,13.3,10.7,14.2c6.9,1,13.3-3.8,14.2-10.7c1-6.9-3.8-13.3-10.7-14.2
					c-2.8-0.4-5.4,0.1-7.7,1.4c1.9-0.9,4.1-1.3,6.4-1c6.1,0.9,10.3,6.5,9.4,12.5c-0.9,6.1-6.5,10.3-12.5,9.4
					C9.5,26.7,5.3,21.1,6.2,15c0.2-1.3,0.6-2.5,1.1-3.6C6.5,12.8,6,14.3,5.8,16z"/>
			</g>
		</g>
		<text transform="matrix(1 0 0 1 41.4492 25.3118)"><tspan x="0" y="0" class="st3 st7 st8">Bac</tspan><tspan x="37.6" y="0" class="st6 st7 st8">Nguyen</tspan></text>
	</g>
</g>
</svg>
