<?xml version="1.0" encoding="UTF-8"?>
<svg id="Layer_1" data-name="Layer 1" xmlns="http://www.w3.org/2000/svg" viewBox="0 0 369.5 75.9">
  <defs>
    <style>
      .cls-1 {
        fill: #f7983a;
      }

      .cls-2 {
        fill: #1a204a;
      }
    </style>
  </defs>
  <g>
    <path class="cls-1" d="M253,47.8h-25v28.1h26.3c8.3,0,15.5-1.5,21.9-4.6,6.3-3.1,11.2-7.5,14.7-13.2,3.5-5.7,5.3-12.4,5.3-20.1s-1.8-14.4-5.3-20.1c-3.5-5.7-8.4-10.1-14.7-13.2-6.3-3.1-13.6-4.6-21.9-4.6h-26.2V28.4h25v19.3Z"/>
    <path class="cls-2" d="M189.3,28.3h18.3v-8.8c.1,0,0,0,0,0V.3h0V0h-38.9l-31.2,75.8h25.4l13-31,6.8-16.5h6.6Zm0,19.3v28.1h18.3v-19.1h0v-9h-18.4Z"/>
    <path class="cls-2" d="M122.7,52.5c4.5-2.4,8-5.6,10.4-9.6,2.4-4,3.6-8.8,3.6-14.2s-1.4-10.8-4.1-15.2c-2.8-4.3-6.7-7.7-11.8-10C115.7,1.2,109.8,0,102.9,0h-35.7V75.9h25v-19.1h6.8l12.6,19.1h26.7l-15.6-23.4Zm-13.8-17.3c-1.7,1.6-4.2,2.3-7.6,2.3h-9.1V19.8h9.1c3.4,0,5.9,.8,7.6,2.3,1.7,1.5,2.5,3.7,2.5,6.6s-.9,5-2.5,6.5"/>
    <polygon class="cls-2" points="0 0 0 19.9 21.7 19.9 21.7 75.9 46.7 75.9 46.7 19.9 68.4 19.9 68.4 0 0 0"/>
  </g>
  <g>
    <path class="cls-1" d="M253,47.8h-25v28.1h26.3c8.3,0,15.5-1.5,21.9-4.6,6.3-3.1,11.2-7.5,14.7-13.2,3.5-5.7,5.3-12.4,5.3-20.1s-1.8-14.4-5.3-20.1c-3.5-5.7-8.4-10.1-14.7-13.2-6.3-3.1-13.6-4.6-21.9-4.6h-26.2V28.4h25v19.3Z"/>
    <path class="cls-2" d="M189.3,28.3h18.3v-8.8c.1,0,0,0,0,0V.3h0V0h-38.9l-31.2,75.8h25.4l13-31,6.8-16.5h6.6Zm0,19.3v28.1h18.3v-19.1h0v-9h-18.4Z"/>
    <path class="cls-2" d="M122.7,52.5c4.5-2.4,8-5.6,10.4-9.6,2.4-4,3.6-8.8,3.6-14.2s-1.4-10.8-4.1-15.2c-2.8-4.3-6.7-7.7-11.8-10C115.7,1.2,109.8,0,102.9,0h-35.7V75.9h25v-19.1h6.8l12.6,19.1h26.7l-15.6-23.4Zm-13.8-17.3c-1.7,1.6-4.2,2.3-7.6,2.3h-9.1V19.8h9.1c3.4,0,5.9,.8,7.6,2.3,1.7,1.5,2.5,3.7,2.5,6.6s-.9,5-2.5,6.5"/>
    <polygon class="cls-2" points="0 0 0 19.9 21.7 19.9 21.7 75.9 46.7 75.9 46.7 19.9 68.4 19.9 68.4 0 0 0"/>
  </g>
  <polygon class="cls-1" points="332.5 56.6 332.5 46.6 363.8 46.6 363.8 28.2 332.5 28.2 332.5 19.4 368.2 19.4 368.2 0 307.9 0 307.9 75.9 369.5 75.9 369.5 56.6 332.5 56.6"/>
</svg>